<svg width="20" height="15" viewBox="0 0 20 15" fill="none" xmlns="http://www.w3.org/2000/svg">
<path d="M18.6881 0H9.78899H0.889919C0.398443 0 0 0.396504 0 0.885589V13.5367C0 14.0257 0.398443 14.4223 0.889919 14.4223H9.78899H18.6881C19.1795 14.4223 19.578 14.0257 19.578 13.5367V0.885589C19.578 0.396504 19.1795 0 18.6881 0Z" fill="#5286F9"/>
<path d="M10.4692 4.691C10.6647 4.91399 10.8351 5.15943 10.9753 5.4232C11.2593 5.95749 11.4209 6.56576 11.4209 7.21113C11.4209 7.85649 11.2593 8.46468 10.9753 8.99905C10.8351 9.26282 10.6647 9.50818 10.4692 9.73117C10.2679 9.96066 10.0397 10.166 9.78943 10.3426C10.4186 10.7865 11.186 11.0486 12.0142 11.0486C14.1406 11.0486 15.8705 9.32709 15.8705 7.21113C15.8705 5.09516 14.1406 3.3736 12.0142 3.3736C11.186 3.3736 10.4186 3.63562 9.78943 4.07958C10.0397 4.25622 10.2678 4.46159 10.4692 4.691Z" fill="#FFB655"/>
<path d="M10.9756 5.42325C10.8354 5.1594 10.6651 4.91403 10.4695 4.69105C10.2681 4.46156 10.04 4.2563 9.78977 4.0797C9.16067 3.63575 8.39319 3.37372 7.56499 3.37372C5.43864 3.37372 3.70874 5.09524 3.70874 7.21121C3.70874 9.32718 5.43868 11.0487 7.56499 11.0487C8.39319 11.0487 9.16067 10.7866 9.78977 10.3427C10.0401 10.1661 10.2681 9.96075 10.4695 9.73133C10.6651 9.50834 10.8354 9.26291 10.9756 8.99921C11.2596 8.46484 11.4213 7.85657 11.4213 7.21128C11.4213 6.56577 11.2596 5.95754 10.9756 5.42325Z" fill="#D8143A"/>
<path d="M7.56421 11.0487C5.43786 11.0487 3.70796 9.32721 3.70796 7.21124C3.70796 5.09527 5.4379 3.37375 7.56421 3.37375C8.39241 3.37375 9.15982 3.63578 9.78899 4.07973V0H0.889919C0.398443 0 0 0.396504 0 0.885589V13.5367C0 14.0257 0.398443 14.4223 0.889919 14.4223H9.78899V10.3427C9.15982 10.7866 8.39241 11.0487 7.56421 11.0487Z" fill="#3D6DEB"/>
</svg>
